<svg version="1.2" xmlns="http://www.w3.org/2000/svg" viewBox="0 0 722 722" width="64" height="64"><defs><clipPath clipPathUnits="userSpaceOnUse" id="cp1"><path d="m-66 91h1122.52v539.97h-1122.52z"/></clipPath></defs><style>.a{fill:#fff}.b{fill:#fbca07}</style><path fill-rule="evenodd" class="a" d="m361.5 722c-199.6 0-361-161.4-361-361 0-199.6 161.4-361 361-361 199.6 0 361 161.4 361 361 0 199.6-161.4 361-361 361z"/><path fill-rule="evenodd" d="m483.6 336.8v151.7h48v-111.6h80.9v-40.1z"/><g clip-path="url(#cp1)"><path fill-rule="evenodd" d="m248.8 233.9v146.9c0 43.3-13.9 71.8-52.9 71.8-39 0-52.8-28.5-52.8-71.8v-146.9h-51.1v162.5c0 68.2 38.7 96.3 103.9 96.3 65.3 0 103.9-28.1 103.9-96.3v-122.4h59v214.3h51v-214.3h203v-40.1z"/><path fill-rule="evenodd" class="b" d="m421.3 488.5v-203.9h191.2v40.2h-140.1v163.7z"/></g></svg>