<svg version="1.2" xmlns="http://www.w3.org/2000/svg" viewBox="0 0 850 360" width="128" height="54"><defs><clipPath clipPathUnits="userSpaceOnUse" id="cp1"><path d="m-137-110h1122.52v539.97h-1122.52z"/></clipPath></defs><style>.a{fill:#231f20}.b{fill:#fbca07}</style><path fill-rule="evenodd" class="a" d="m410.6 135.8v151.7h48v-111.6h80.9v-40.1z"/><g clip-path="url(#cp1)"><path fill-rule="evenodd" class="a" d="m175.8 32.9v146.9c0 43.4-13.9 71.8-52.9 71.8-39 0-52.8-28.4-52.8-71.8v-146.9h-51.1v162.6c0 68.1 38.7 96.2 103.9 96.2 65.3 0 103.9-28.1 103.9-96.2v-122.5h59v214.3h51v-214.3h203v-40.1z"/><path class="a" d="m15.4 308.6h4.5v11.7q0 2.8 0.2 3.7 0.3 1.3 1.4 2.1 1.1 0.8 2.9 0.8 1.9 0 2.9-0.7 1-0.8 1.2-1.9 0.2-1.1 0.2-3.7v-12h4.5v11.4q0 3.9-0.4 5.5-0.4 1.6-1.3 2.7-1 1.2-2.7 1.8-1.6 0.7-4.2 0.7-3.2 0-4.9-0.7-1.6-0.8-2.6-1.9-0.9-1.2-1.2-2.4-0.5-1.9-0.5-5.5z"/><path class="a" d="m37.9 330.3v-21.7h4.4l9.1 14.5v-14.5h4.2v21.7h-4.5l-9-14.2v14.2z"/><path class="a" d="m60.2 308.6h4.4v21.7h-4.4z"/><path class="a" d="m74.6 330.3l-8-21.7h4.9l5.6 16.1 5.5-16.1h4.7l-7.9 21.7z"/><path class="a" d="m89.6 330.3v-21.7h16.5v3.6h-12v4.9h11.1v3.6h-11.1v5.9h12.4v3.7z"/><path class="a" d="m110.3 330.3v-21.7h9.5q3.5 0 5.1 0.5 1.6 0.6 2.6 2.1 1 1.5 1 3.5 0 2.4-1.5 4-1.5 1.6-4.4 2 1.5 0.8 2.4 1.8 1 1 2.6 3.6l2.7 4.2h-5.4l-3.2-4.7q-1.7-2.6-2.4-3.2-0.6-0.7-1.3-0.9-0.7-0.3-2.3-0.3h-0.9v9.1zm4.5-12.5h3.3q3.2 0 4-0.3 0.8-0.3 1.3-0.9 0.4-0.7 0.4-1.7 0-1.1-0.6-1.7-0.6-0.7-1.6-0.9-0.6-0.1-3.3-0.1h-3.5z"/><path class="a" d="m131.6 323.2l4.3-0.4q0.4 2.2 1.6 3.2 1.2 1 3.3 1 2.2 0 3.2-0.9 1.1-0.9 1.1-2.1 0-0.8-0.4-1.3-0.5-0.6-1.6-1-0.8-0.2-3.6-0.9-3.6-0.9-5.1-2.2-2-1.8-2-4.3 0-1.7 0.9-3.2 1-1.4 2.8-2.2 1.8-0.7 4.4-0.7 4.2 0 6.3 1.8 2.1 1.8 2.2 4.8l-4.5 0.2q-0.3-1.7-1.2-2.4-1-0.8-2.9-0.8-1.9 0-3 0.8-0.7 0.5-0.7 1.4 0 0.7 0.6 1.3 0.9 0.7 4.2 1.4 3.2 0.8 4.8 1.6 1.6 0.8 2.4 2.2 0.9 1.4 0.9 3.5 0 1.8-1 3.5-1.1 1.6-3 2.4-2 0.8-4.9 0.8-4.2 0-6.4-1.9-2.3-1.9-2.7-5.6z"/><path class="a" d="m153.3 308.6h4.5v21.7h-4.5z"/><path class="a" d="m162 308.6h8.2q2.8 0 4.2 0.4 2 0.5 3.4 2 1.4 1.4 2.1 3.5 0.7 2.1 0.7 5.1 0 2.7-0.7 4.7-0.8 2.3-2.3 3.8-1.2 1.1-3.2 1.7-1.5 0.5-4 0.5h-8.4zm4.5 3.7v14.4h3.3q1.9 0 2.8-0.2 1-0.3 1.8-0.9 0.7-0.7 1.1-2.1 0.5-1.5 0.5-4 0-2.5-0.5-3.9-0.4-1.3-1.2-2.1-0.9-0.7-2.1-1-0.9-0.2-3.7-0.2z"/><path class="a" d="m204.5 330.3h-4.9l-2-4.9h-8.8l-1.9 4.9h-4.7l8.6-21.7h4.8zm-8.3-8.6l-3-8.1-3 8.1z"/><path class="a" d="m206.8 308.6h8.2q2.8 0 4.2 0.4 2 0.5 3.4 2 1.4 1.4 2.1 3.5 0.7 2.1 0.7 5.1 0 2.7-0.6 4.7-0.9 2.3-2.4 3.8-1.2 1.1-3.2 1.7-1.5 0.5-3.9 0.5h-8.5zm4.5 3.7v14.4h3.4q1.8 0 2.7-0.2 1.1-0.3 1.8-0.9 0.7-0.7 1.2-2.1 0.4-1.5 0.4-4 0-2.5-0.4-3.9-0.5-1.3-1.3-2.1-0.8-0.7-2.1-1-0.9-0.2-3.7-0.2z"/><path class="a" d="m229.2 330.3v-21.7h16.5v3.6h-12v4.9h11.2v3.6h-11.2v5.9h12.4v3.7z"/><path class="a" d="m263.6 330.3v-18.1h-6.6v-3.6h17.6v3.6h-6.6v18.1z"/><path class="a" d="m277.5 330.3v-21.7h16.5v3.6h-12v4.9h11.2v3.6h-11.2v5.9h12.4v3.7z"/><path class="a" d="m312.4 322.3l4.4 1.4q-1 3.5-3.4 5.2-2.3 1.8-5.9 1.8-4.4 0-7.2-3-2.9-2.9-2.9-8.1 0-5.4 2.9-8.4 2.8-3 7.5-3 4.1 0 6.6 2.3 1.6 1.4 2.3 4.1l-4.4 1q-0.4-1.7-1.7-2.7-1.2-1-3-1-2.5 0-4 1.8-1.6 1.7-1.6 5.6 0 4.1 1.6 5.9 1.5 1.7 3.9 1.7 1.8 0 3.1-1.1 1.3-1.1 1.8-3.5z"/><path class="a" d="m320.7 330.3v-21.7h4.3l9.1 14.5v-14.5h4.2v21.7h-4.5l-9-14.2v14.2z"/><path class="a" d="m342.1 319.6q0-3.4 1-5.6 0.8-1.7 2.1-3 1.3-1.3 2.9-2 2-0.8 4.8-0.8 4.9 0 7.8 3 3 3 3 8.3 0 5.2-3 8.2-2.9 3-7.8 3-4.9 0-7.9-3-2.9-2.9-2.9-8.1zm4.6-0.2q0 3.7 1.8 5.6 1.7 1.9 4.4 1.9 2.7 0 4.4-1.9 1.7-1.9 1.7-5.6 0-3.8-1.7-5.6-1.6-1.9-4.4-1.9-2.8 0-4.5 1.9-1.7 1.9-1.7 5.6z"/><path class="a" d="m367.3 330.3v-21.6h4.5v17.9h11.1v3.7z"/><path class="a" d="m393.2 307.3l2.1-4.4h4.8l-4.2 4.4zm-8 12.3q0-3.4 1-5.6 0.8-1.7 2.1-3 1.3-1.3 2.9-2 2-0.8 4.7-0.8 4.9 0 7.9 3 2.9 3 2.9 8.3 0 5.2-2.9 8.2-2.9 3-7.8 3-5 0-7.9-3-2.9-2.9-2.9-8.1zm4.6-0.2q0 3.7 1.8 5.6 1.7 1.9 4.4 1.9 2.7 0 4.4-1.9 1.7-1.9 1.7-5.6 0-3.8-1.7-5.6-1.6-1.9-4.4-1.9-2.8 0-4.5 1.9-1.7 1.9-1.7 5.6z"/><path class="a" d="m420.6 322.3v-3.7h9.6v8.7q-1.4 1.3-4 2.4-2.7 1-5.5 1-3.4 0-6-1.5-2.6-1.4-3.9-4-1.3-2.7-1.3-5.8 0-3.4 1.4-6.1 1.5-2.6 4.3-4 2.1-1.1 5.3-1.1 4.1 0 6.5 1.7 2.3 1.7 3 4.7l-4.5 0.8q-0.5-1.6-1.8-2.5-1.3-1-3.2-1-2.9 0-4.7 1.9-1.7 1.8-1.7 5.4 0 3.9 1.8 5.8 1.7 1.9 4.6 1.9 1.4 0 2.8-0.5 1.4-0.6 2.4-1.3v-2.8z"/><path class="a" d="m434.2 308.6h4.5v21.7h-4.5z"/><path class="a" d="m457.2 322.3l4.4 1.4q-1 3.5-3.4 5.2-2.3 1.8-5.9 1.8-4.4 0-7.2-3-2.9-2.9-2.9-8.1 0-5.4 2.9-8.4 2.8-3 7.5-3 4.1 0 6.6 2.3 1.5 1.4 2.3 4.1l-4.4 1q-0.4-1.7-1.7-2.7-1.2-1-3-1-2.5 0-4 1.8-1.6 1.7-1.6 5.6 0 4.1 1.6 5.9 1.5 1.7 3.9 1.7 1.8 0 3.1-1.1 1.3-1.1 1.8-3.5z"/><path class="a" d="m485.4 330.3h-4.8l-2-4.9h-8.9l-1.8 4.9h-4.7l8.6-21.7h4.7zm-8.2-8.6l-3.1-8.1-3 8.1z"/><path class="a" d="m495.3 330.3v-21.7h15.2v3.6h-10.7v5.2h9.3v3.7h-9.3v9.2z"/><path class="a" d="m514.2 330.3v-21.7h16.5v3.6h-12v4.9h11.2v3.6h-11.2v5.9h12.4v3.7z"/><path class="a" d="m534.9 308.6h8.2q2.8 0 4.2 0.4 2 0.5 3.4 2 1.4 1.4 2.1 3.5 0.7 2.1 0.7 5.1 0 2.7-0.6 4.7-0.9 2.3-2.4 3.8-1.2 1.1-3.2 1.7-1.5 0.5-3.9 0.5h-8.5zm4.5 3.7v14.4h3.3q1.9 0 2.8-0.2 1-0.3 1.8-0.9 0.7-0.7 1.1-2.1 0.5-1.5 0.5-4 0-2.5-0.5-3.9-0.4-1.3-1.2-2.1-0.8-0.7-2.1-1-0.9-0.2-3.7-0.2z"/><path class="a" d="m557.3 330.3v-21.7h16.5v3.6h-12v4.9h11.2v3.6h-11.2v5.9h12.4v3.7z"/><path class="a" d="m578 330.3v-21.7h9.5q3.5 0 5.2 0.5 1.6 0.6 2.5 2.1 1 1.5 1 3.5 0 2.4-1.5 4-1.4 1.6-4.4 2 1.5 0.8 2.5 1.8 0.9 1 2.5 3.6l2.7 4.2h-5.3l-3.3-4.7q-1.7-2.6-2.4-3.2-0.6-0.7-1.3-0.9-0.7-0.3-2.3-0.3h-0.9v9.1zm4.5-12.5h3.3q3.3 0 4.1-0.3 0.8-0.3 1.2-0.9 0.5-0.7 0.5-1.7 0-1.1-0.6-1.7-0.6-0.7-1.7-0.9-0.6-0.1-3.3-0.1h-3.5z"/><path class="a" d="m620.5 330.3h-4.9l-2-4.9h-8.8l-1.9 4.9h-4.7l8.6-21.7h4.8zm-8.3-8.6l-3-8.1-3 8.1z"/><path class="a" d="m623 330.3v-21.6h4.5v17.9h11.1v3.7z"/><path class="a" d="m649.8 308.6h8.2q2.8 0 4.3 0.4 1.9 0.5 3.3 2 1.4 1.4 2.1 3.5 0.8 2.1 0.8 5.1 0 2.7-0.7 4.7-0.8 2.3-2.4 3.8-1.2 1.1-3.1 1.7-1.5 0.5-4 0.5h-8.5zm4.5 3.7v14.4h3.4q1.9 0 2.7-0.2 1.1-0.3 1.8-0.9 0.7-0.7 1.2-2.1 0.4-1.5 0.4-4 0-2.5-0.4-3.9-0.5-1.3-1.3-2.1-0.8-0.7-2.1-1-0.9-0.2-3.7-0.2z"/><path class="a" d="m671.4 319.6q0-3.4 1-5.6 0.7-1.7 2-3 1.4-1.3 2.9-2 2.1-0.8 4.8-0.8 4.9 0 7.9 3 2.9 3 2.9 8.3 0 5.2-2.9 8.2-2.9 3-7.8 3-5 0-7.9-3-2.9-2.9-2.9-8.1zm4.6-0.2q0 3.7 1.7 5.6 1.8 1.9 4.4 1.9 2.7 0 4.4-1.9 1.8-1.9 1.8-5.6 0-3.8-1.7-5.6-1.7-1.9-4.5-1.9-2.7 0-4.4 1.9-1.7 1.9-1.7 5.6z"/><path class="a" d="m705 330.3v-21.7h7.2q4.1 0 5.4 0.3 1.9 0.5 3.1 2.1 1.3 1.7 1.3 4.2 0 2.1-0.7 3.4-0.7 1.4-1.9 2.2-1.1 0.7-2.3 1-1.6 0.3-4.7 0.3h-2.9v8.2zm4.5-18.1v6.2h2.4q2.7 0 3.6-0.3 0.9-0.4 1.4-1.1 0.5-0.7 0.5-1.7 0-1.2-0.7-2-0.7-0.7-1.8-0.9-0.8-0.2-3.2-0.2z"/><path class="a" d="m743.4 330.3h-4.8l-2-4.9h-8.9l-1.8 4.9h-4.7l8.6-21.7h4.8zm-8.3-8.6l-3.1-8.1-3 8.1z"/><path class="a" d="m745.8 330.3v-21.7h9.5q3.5 0 5.2 0.5 1.6 0.6 2.5 2.1 1 1.5 1 3.5 0 2.4-1.5 4-1.4 1.6-4.4 2 1.5 0.8 2.4 1.8 1 1 2.6 3.6l2.7 4.2h-5.4l-3.2-4.7q-1.7-2.6-2.4-3.2-0.6-0.7-1.3-0.9-0.7-0.3-2.3-0.3h-0.9v9.1zm4.5-12.5h3.3q3.3 0 4.1-0.3 0.8-0.3 1.2-0.9 0.5-0.7 0.5-1.7 0-1.1-0.6-1.7-0.6-0.7-1.7-0.9-0.6-0.1-3.3-0.1h-3.5z"/><path class="a" d="m788.3 330.3h-4.9l-2-4.9h-8.8l-1.9 4.9h-4.7l8.6-21.7h4.8zm-8.3-8.6l-3.1-8.1-3 8.1z"/><path class="a" d="m790.7 330.3v-21.7h4.3l9.1 14.5v-14.5h4.2v21.7h-4.5l-8.9-14.2v14.2z"/><path class="a" d="m819.2 307.3l2.1-4.4h4.7l-4.1 4.4zm13.9 23h-4.9l-1.9-4.9h-8.9l-1.9 4.9h-4.7l8.6-21.7h4.8zm-8.3-8.6l-3-8.1-3 8.1z"/><path fill-rule="evenodd" class="b" d="m348.3 287.5v-203.9h191.2v40.2h-140.1v163.7z"/><path class="a" d="m560.1 287.1v-151.7h49.1q28 0 36.5 2.3 13 3.4 21.8 14.8 8.8 11.5 8.8 29.6 0 13.9-5.1 23.5-5 9.5-12.9 14.9-7.8 5.5-15.8 7.2-11 2.2-31.8 2.2h-20v57.2zm30.7-126v43h16.7q18.1 0 24.2-2.4 6.1-2.3 9.6-7.4 3.5-5.1 3.5-11.8 0-8.3-4.9-13.7-4.9-5.3-12.3-6.7-5.5-1-22-1z"/><path class="a" d="m684.6 287v-151.7h64.5q24.3 0 35.3 4.1 11 4.1 17.6 14.6 6.7 10.4 6.7 23.9 0 17-10.1 28.2-10 11.1-30 14 9.9 5.8 16.4 12.7 6.5 6.9 17.4 24.6l18.6 29.6h-36.7l-22.1-33q-11.8-17.7-16.2-22.3-4.3-4.6-9.2-6.3-4.8-1.7-15.4-1.7h-6.2v63.3zm30.6-87.5h22.7q22 0 27.5-1.9 5.5-1.8 8.6-6.4 3.1-4.5 3.1-11.4 0-7.6-4.1-12.3-4.1-4.8-11.5-6-3.7-0.5-22.4-0.5h-23.9z"/></g></svg>